<?xml version="1.0" encoding="UTF-8" standalone="no"?>
<!DOCTYPE svg PUBLIC "-//W3C//DTD SVG 1.1//EN"
 "http://www.w3.org/Graphics/SVG/1.1/DTD/svg11.dtd">
<!-- Generated by graphviz version 2.43.0 (0)
 -->
<!-- Title: %3 Pages: 1 -->
<svg width="316pt" height="83pt"
 viewBox="0.00 0.00 316.00 82.50" xmlns="http://www.w3.org/2000/svg" xmlns:xlink="http://www.w3.org/1999/xlink">
<g id="graph0" class="graph" transform="scale(1 1) rotate(0) translate(4 78.5)">
<title>%3</title>
<polygon fill="white" stroke="transparent" points="-4,4 -4,-78.5 312,-78.5 312,4 -4,4"/>
<!-- S -->
<g id="node1" class="node">
<title>S</title>
<ellipse fill="none" stroke="black" cx="64" cy="-18.5" rx="27" ry="18"/>
<text text-anchor="middle" x="64" y="-14.8" font-family="Times,serif" font-size="14.00">S</text>
</g>
<!-- I -->
<g id="node2" class="node">
<title>I</title>
<ellipse fill="none" stroke="black" cx="154" cy="-37.5" rx="27" ry="18"/>
<text text-anchor="middle" x="154" y="-33.8" font-family="Times,serif" font-size="14.00">I</text>
</g>
<!-- S&#45;&gt;I -->
<g id="edge1" class="edge">
<title>S&#45;&gt;I</title>
<path fill="none" stroke="black" d="M89.98,-23.89C98.71,-25.78 108.68,-27.93 118.08,-29.96"/>
<polygon fill="black" stroke="black" points="117.44,-33.4 127.96,-32.09 118.92,-26.56 117.44,-33.4"/>
</g>
<!-- deadS -->
<g id="node5" class="node">
<title>deadS</title>
</g>
<!-- S&#45;&gt;deadS -->
<g id="edge4" class="edge">
<title>S&#45;&gt;deadS</title>
<path fill="none" stroke="black" d="M89.98,-13.39C107.51,-9.81 130.01,-5.2 142.84,-2.58"/>
<polygon fill="black" stroke="black" points="143.8,-5.95 152.89,-0.52 142.39,0.9 143.8,-5.95"/>
</g>
<!-- R -->
<g id="node3" class="node">
<title>R</title>
<ellipse fill="none" stroke="black" cx="244" cy="-56.5" rx="27" ry="18"/>
<text text-anchor="middle" x="244" y="-52.8" font-family="Times,serif" font-size="14.00">R</text>
</g>
<!-- I&#45;&gt;R -->
<g id="edge2" class="edge">
<title>I&#45;&gt;R</title>
<path fill="none" stroke="black" d="M179.98,-42.89C188.71,-44.78 198.68,-46.93 208.08,-48.96"/>
<polygon fill="black" stroke="black" points="207.44,-52.4 217.96,-51.09 208.92,-45.56 207.44,-52.4"/>
</g>
<!-- deadI -->
<g id="node6" class="node">
<title>deadI</title>
</g>
<!-- I&#45;&gt;deadI -->
<g id="edge5" class="edge">
<title>I&#45;&gt;deadI</title>
<path fill="none" stroke="black" d="M179.98,-32.39C197.51,-28.81 220.01,-24.2 232.84,-21.58"/>
<polygon fill="black" stroke="black" points="233.8,-24.95 242.89,-19.52 232.39,-18.1 233.8,-24.95"/>
</g>
<!-- deadR -->
<g id="node7" class="node">
<title>deadR</title>
</g>
<!-- R&#45;&gt;deadR -->
<g id="edge6" class="edge">
<title>R&#45;&gt;deadR</title>
<path fill="none" stroke="black" d="M271.29,-56.5C280.25,-56.5 289.73,-56.5 296.68,-56.5"/>
<polygon fill="black" stroke="black" points="296.95,-60 306.95,-56.5 296.95,-53 296.95,-60"/>
</g>
<!-- bornS -->
<g id="node4" class="node">
<title>bornS</title>
</g>
<!-- bornS&#45;&gt;S -->
<g id="edge3" class="edge">
<title>bornS&#45;&gt;S</title>
<path fill="none" stroke="black" d="M1.04,-18.5C1.86,-18.5 13.73,-18.5 26.87,-18.5"/>
<polygon fill="black" stroke="black" points="27,-22 37,-18.5 27,-15 27,-22"/>
</g>
</g>
</svg>